<?xml version="1.0" encoding="iso-8859-1"?>
<!-- Generator: Adobe Illustrator 19.0.0, SVG Export Plug-In . SVG Version: 6.00 Build 0)  -->
<svg version="1.1" id="Capa_1" xmlns="http://www.w3.org/2000/svg" xmlns:xlink="http://www.w3.org/1999/xlink" x="0px" y="0px"
	 viewBox="0 0 468.293 468.293" style="enable-background:new 0 0 468.293 468.293;" xml:space="preserve">
<path style="fill:#DC8744;" d="M387.474,200.871h-72.528v181.911c65.091-15.952,110.441-73.577,110.441-140.702v-3.297
	C425.386,217.876,408.381,200.871,387.474,200.871z M399.012,242.08c0,49.573-30.224,92.843-75.278,110.389V227.245h63.739
	c6.362,0,11.539,5.177,11.539,11.539V242.08z"/>
<path style="fill:#F7BE56;" d="M42.906,131.835v280.377c0,30.972,25.108,56.08,56.08,56.08H282.93
	c30.973,0,56.08-25.108,56.08-56.08V131.835H42.906z"/>
<g>
	<path style="fill:#FCD462;" d="M136.999,30.747c5.421-4.48,12.852-10.607,12.852-22.455c0-4.577-4.019-8.291-8.973-8.291
		c-4.954,0-8.973,3.714-8.973,8.291c0,4.243-2.103,6.159-6.858,10.083c-5.427,4.48-12.852,10.607-12.852,22.45
		c0,11.848,7.425,17.98,12.846,22.461c4.761,3.93,6.864,5.846,6.864,10.1s-2.103,6.17-6.864,10.1
		c-5.421,4.48-12.846,10.612-12.846,22.461c0,4.577,4.019,8.291,8.973,8.291c4.954,0,8.973-3.714,8.973-8.291
		c0-4.254,2.103-6.17,6.864-10.1c5.421-4.48,12.846-10.612,12.846-22.461s-7.425-17.98-12.846-22.461
		c-4.761-3.93-6.864-5.846-6.864-10.1C130.14,36.582,132.243,34.671,136.999,30.747z"/>
	<path style="fill:#FCD462;" d="M196.934,30.747c5.421-4.48,12.852-10.607,12.852-22.455c0-4.577-4.019-8.291-8.973-8.291
		c-4.954,0-8.973,3.714-8.973,8.291c0,4.243-2.103,6.159-6.858,10.083c-5.427,4.48-12.852,10.607-12.852,22.45
		c0,11.848,7.425,17.98,12.846,22.461c4.761,3.93,6.864,5.846,6.864,10.1s-2.103,6.17-6.864,10.1
		c-5.421,4.48-12.846,10.612-12.846,22.461c0,4.577,4.019,8.291,8.973,8.291c4.954,0,8.973-3.714,8.973-8.291
		c0-4.254,2.103-6.17,6.864-10.1c5.421-4.48,12.846-10.612,12.846-22.461s-7.425-17.98-12.846-22.461
		c-4.761-3.93-6.864-5.846-6.864-10.1C190.076,36.582,192.179,34.671,196.934,30.747z"/>
	<path style="fill:#FCD462;" d="M256.876,50.924c-4.761-3.93-6.864-5.846-6.864-10.1c0-4.243,2.103-6.154,6.858-10.078
		c5.421-4.48,12.852-10.607,12.852-22.455c0-4.577-4.019-8.291-8.973-8.291s-8.973,3.714-8.973,8.291
		c0,4.243-2.103,6.159-6.858,10.083c-5.427,4.48-12.852,10.607-12.852,22.45c0,11.848,7.425,17.98,12.846,22.461
		c4.761,3.93,6.864,5.846,6.864,10.1s-2.103,6.17-6.864,10.1c-5.421,4.48-12.846,10.612-12.846,22.461
		c0,4.577,4.019,8.291,8.973,8.291c4.954,0,8.973-3.714,8.973-8.291c0-4.254,2.103-6.17,6.864-10.1
		c5.421-4.48,12.846-10.612,12.846-22.461S262.297,55.404,256.876,50.924z"/>
</g>
<g>
</g>
<g>
</g>
<g>
</g>
<g>
</g>
<g>
</g>
<g>
</g>
<g>
</g>
<g>
</g>
<g>
</g>
<g>
</g>
<g>
</g>
<g>
</g>
<g>
</g>
<g>
</g>
<g>
</g>
</svg>
